<svg width="1240" height="68" viewBox="0 0 1240 68" fill="none" xmlns="http://www.w3.org/2000/svg">
<path d="M20.0745 34.6485L8.84014 46.1362V62.2561H0V0H8.84014V34.8338L42.359 0H52.4883L26.1521 27.9782L54.33 62.2561H44.0165L20.0745 34.6485Z" fill="#FF6060"/>
<path d="M118.789 57.2535L122.289 50.5832C126.34 53.3625 132.602 55.4006 138.68 55.4006C146.599 55.4006 149.73 52.9919 149.73 48.9156C149.73 38.3543 120.078 47.4333 120.078 28.7194C120.078 20.1963 127.629 14.6377 139.6 14.6377C145.678 14.6377 152.676 16.3053 156.728 18.8993L153.045 25.5696C148.809 22.7903 144.205 21.8639 139.6 21.8639C132.234 21.8639 128.55 24.6431 128.55 28.3489C128.55 39.466 158.202 30.387 158.202 48.7303C158.202 57.2535 150.466 62.6268 137.943 62.6268C130.392 62.8121 122.657 60.4034 118.789 57.2535Z" fill="#FF6060"/>
<path d="M210.322 33.7221V62.2562H202.218V55.9565C199.456 60.2181 194.115 62.6268 186.748 62.6268C176.066 62.6268 169.436 56.8829 169.436 48.7303C169.436 41.1336 174.224 35.0191 188.221 35.0191H201.666V33.3516C201.666 26.1254 197.43 22.0491 189.142 22.0491C183.617 22.0491 177.908 24.0873 174.224 27.0518L170.725 20.5668C175.514 16.6758 182.512 14.4524 190.063 14.4524C203.139 14.6377 210.322 20.9374 210.322 33.7221ZM201.85 47.8039V41.1336H188.774C180.302 41.1336 177.908 44.4687 177.908 48.3597C177.908 52.9919 181.775 55.9565 188.221 55.9565C194.667 56.1418 199.824 53.3625 201.85 47.8039Z" fill="#FF6060"/>
<path d="M91.5323 49.842V62.4415L96.8732 59.2916V46.6921L91.5323 49.842Z" fill="#FF6060"/>
<path d="M106.266 34.4633L84.3497 21.6786L72.1945 14.6377L60.2234 35.575L60.4076 55.2153L82.1396 68.0001L84.3497 66.7031V48.1745L94.1106 30.9429L104.056 36.6867V55.2153L106.266 53.9184V34.4633Z" fill="#FF6060"/>
<path d="M977.937 43L985.545 26.2H987.921L995.553 43H993.033L986.241 27.544H987.201L980.409 43H977.937ZM981.177 38.8L981.825 36.88H991.281L991.977 38.8H981.177ZM1003.15 43.144C1001.85 43.144 1000.69 42.864 999.67 42.304C998.662 41.744 997.87 40.976 997.294 40C996.718 39.024 996.43 37.904 996.43 36.64C996.43 35.376 996.718 34.256 997.294 33.28C997.87 32.304 998.662 31.544 999.67 31C1000.69 30.44 1001.85 30.16 1003.15 30.16C1004.3 30.16 1005.33 30.392 1006.22 30.856C1007.13 31.304 1007.84 31.976 1008.33 32.872L1006.58 34C1006.17 33.376 1005.65 32.92 1005.05 32.632C1004.45 32.328 1003.81 32.176 1003.13 32.176C1002.29 32.176 1001.55 32.36 1000.89 32.728C1000.24 33.096 999.718 33.616 999.334 34.288C998.95 34.944 998.758 35.728 998.758 36.64C998.758 37.552 998.95 38.344 999.334 39.016C999.718 39.688 1000.24 40.208 1000.89 40.576C1001.55 40.944 1002.29 41.128 1003.13 41.128C1003.81 41.128 1004.45 40.984 1005.05 40.696C1005.65 40.392 1006.17 39.928 1006.58 39.304L1008.33 40.408C1007.84 41.288 1007.13 41.968 1006.22 42.448C1005.33 42.912 1004.3 43.144 1003.15 43.144ZM1016.67 43.144C1015.38 43.144 1014.22 42.864 1013.19 42.304C1012.19 41.744 1011.39 40.976 1010.82 40C1010.24 39.024 1009.95 37.904 1009.95 36.64C1009.95 35.376 1010.24 34.256 1010.82 33.28C1011.39 32.304 1012.19 31.544 1013.19 31C1014.22 30.44 1015.38 30.16 1016.67 30.16C1017.83 30.16 1018.85 30.392 1019.75 30.856C1020.66 31.304 1021.36 31.976 1021.86 32.872L1020.11 34C1019.69 33.376 1019.18 32.92 1018.57 32.632C1017.98 32.328 1017.34 32.176 1016.65 32.176C1015.82 32.176 1015.07 32.36 1014.42 32.728C1013.76 33.096 1013.24 33.616 1012.86 34.288C1012.47 34.944 1012.28 35.728 1012.28 36.64C1012.28 37.552 1012.47 38.344 1012.86 39.016C1013.24 39.688 1013.76 40.208 1014.42 40.576C1015.07 40.944 1015.82 41.128 1016.65 41.128C1017.34 41.128 1017.98 40.984 1018.57 40.696C1019.18 40.392 1019.69 39.928 1020.11 39.304L1021.86 40.408C1021.36 41.288 1020.66 41.968 1019.75 42.448C1018.85 42.912 1017.83 43.144 1016.67 43.144ZM1030.19 43.144C1029.1 43.144 1028.14 42.944 1027.31 42.544C1026.5 42.144 1025.86 41.536 1025.39 40.72C1024.94 39.888 1024.72 38.848 1024.72 37.6V30.28H1027.02V37.336C1027.02 38.584 1027.32 39.52 1027.91 40.144C1028.52 40.768 1029.37 41.08 1030.46 41.08C1031.26 41.08 1031.95 40.92 1032.54 40.6C1033.14 40.264 1033.59 39.784 1033.91 39.16C1034.23 38.52 1034.39 37.752 1034.39 36.856V30.28H1036.7V43H1034.51V39.568L1034.87 40.48C1034.46 41.328 1033.83 41.984 1033 42.448C1032.17 42.912 1031.23 43.144 1030.19 43.144ZM1046.75 43.144C1045.39 43.144 1044.19 42.864 1043.15 42.304C1042.12 41.744 1041.32 40.976 1040.75 40C1040.19 39.024 1039.91 37.904 1039.91 36.64C1039.91 35.376 1040.18 34.256 1040.72 33.28C1041.28 32.304 1042.04 31.544 1043 31C1043.98 30.44 1045.07 30.16 1046.29 30.16C1047.52 30.16 1048.61 30.432 1049.55 30.976C1050.5 31.52 1051.23 32.288 1051.76 33.28C1052.31 34.256 1052.58 35.4 1052.58 36.712C1052.58 36.808 1052.57 36.92 1052.55 37.048C1052.55 37.176 1052.55 37.296 1052.53 37.408H1041.71V35.752H1051.33L1050.39 36.328C1050.41 35.512 1050.24 34.784 1049.89 34.144C1049.54 33.504 1049.05 33.008 1048.43 32.656C1047.82 32.288 1047.11 32.104 1046.29 32.104C1045.49 32.104 1044.78 32.288 1044.15 32.656C1043.53 33.008 1043.04 33.512 1042.69 34.168C1042.34 34.808 1042.16 35.544 1042.16 36.376V36.76C1042.16 37.608 1042.35 38.368 1042.74 39.04C1043.14 39.696 1043.69 40.208 1044.39 40.576C1045.1 40.944 1045.91 41.128 1046.82 41.128C1047.57 41.128 1048.25 41 1048.86 40.744C1049.48 40.488 1050.03 40.104 1050.49 39.592L1051.76 41.08C1051.19 41.752 1050.47 42.264 1049.6 42.616C1048.75 42.968 1047.8 43.144 1046.75 43.144ZM1055.78 43V30.28H1058.08V43H1055.78ZM1056.93 27.832C1056.48 27.832 1056.11 27.688 1055.8 27.4C1055.51 27.112 1055.37 26.76 1055.37 26.344C1055.37 25.912 1055.51 25.552 1055.8 25.264C1056.11 24.976 1056.48 24.832 1056.93 24.832C1057.38 24.832 1057.75 24.976 1058.03 25.264C1058.34 25.536 1058.49 25.88 1058.49 26.296C1058.49 26.728 1058.35 27.096 1058.06 27.4C1057.77 27.688 1057.39 27.832 1056.93 27.832ZM1062.48 43V25.192H1064.78V43H1062.48Z" fill="black"/>
<path d="M1130.69 43L1138.29 26.2H1140.67L1148.3 43H1145.78L1138.99 27.544H1139.95L1133.16 43H1130.69ZM1133.93 38.8L1134.57 36.88H1144.03L1144.73 38.8H1133.93ZM1157.25 43V26.2H1163.81C1165.28 26.2 1166.53 26.432 1167.57 26.896C1168.61 27.36 1169.41 28.032 1169.97 28.912C1170.53 29.792 1170.81 30.84 1170.81 32.056C1170.81 33.272 1170.53 34.32 1169.97 35.2C1169.41 36.064 1168.61 36.736 1167.57 37.216C1166.53 37.68 1165.28 37.912 1163.81 37.912H1158.57L1159.65 36.784V43H1157.25ZM1159.65 37.024L1158.57 35.824H1163.73C1165.27 35.824 1166.43 35.496 1167.21 34.84C1168.01 34.184 1168.41 33.256 1168.41 32.056C1168.41 30.856 1168.01 29.928 1167.21 29.272C1166.43 28.616 1165.27 28.288 1163.73 28.288H1158.57L1159.65 27.088V37.024ZM1173.77 43V30.28H1175.98V33.736L1175.76 32.872C1176.11 31.992 1176.71 31.32 1177.54 30.856C1178.37 30.392 1179.39 30.16 1180.61 30.16V32.392C1180.51 32.376 1180.42 32.368 1180.32 32.368C1180.24 32.368 1180.16 32.368 1180.08 32.368C1178.85 32.368 1177.87 32.736 1177.15 33.472C1176.43 34.208 1176.07 35.272 1176.07 36.664V43H1173.77ZM1188.78 43.144C1187.5 43.144 1186.36 42.864 1185.37 42.304C1184.38 41.744 1183.6 40.976 1183.02 40C1182.44 39.008 1182.16 37.888 1182.16 36.64C1182.16 35.376 1182.44 34.256 1183.02 33.28C1183.6 32.304 1184.38 31.544 1185.37 31C1186.36 30.44 1187.5 30.16 1188.78 30.16C1190.04 30.16 1191.17 30.44 1192.16 31C1193.17 31.544 1193.96 32.304 1194.52 33.28C1195.09 34.24 1195.38 35.36 1195.38 36.64C1195.38 37.904 1195.09 39.024 1194.52 40C1193.96 40.976 1193.17 41.744 1192.16 42.304C1191.17 42.864 1190.04 43.144 1188.78 43.144ZM1188.78 41.128C1189.6 41.128 1190.32 40.944 1190.96 40.576C1191.62 40.208 1192.13 39.688 1192.5 39.016C1192.87 38.328 1193.05 37.536 1193.05 36.64C1193.05 35.728 1192.87 34.944 1192.5 34.288C1192.13 33.616 1191.62 33.096 1190.96 32.728C1190.32 32.36 1189.6 32.176 1188.78 32.176C1187.96 32.176 1187.24 32.36 1186.6 32.728C1185.96 33.096 1185.44 33.616 1185.06 34.288C1184.68 34.944 1184.48 35.728 1184.48 36.64C1184.48 37.536 1184.68 38.328 1185.06 39.016C1185.44 39.688 1185.96 40.208 1186.6 40.576C1187.24 40.944 1187.96 41.128 1188.78 41.128ZM1205.31 43.144C1204.25 43.144 1203.29 42.904 1202.41 42.424C1201.54 41.928 1200.85 41.2 1200.32 40.24C1199.81 39.28 1199.55 38.08 1199.55 36.64C1199.55 35.2 1199.8 34 1200.29 33.04C1200.81 32.08 1201.49 31.36 1202.36 30.88C1203.24 30.4 1204.22 30.16 1205.31 30.16C1206.56 30.16 1207.66 30.432 1208.62 30.976C1209.58 31.52 1210.34 32.28 1210.9 33.256C1211.46 34.216 1211.74 35.344 1211.74 36.64C1211.74 37.936 1211.46 39.072 1210.9 40.048C1210.34 41.024 1209.58 41.784 1208.62 42.328C1207.66 42.872 1206.56 43.144 1205.31 43.144ZM1198.57 47.656V30.28H1200.77V33.712L1200.63 36.664L1200.87 39.616V47.656H1198.57ZM1205.12 41.128C1205.93 41.128 1206.66 40.944 1207.3 40.576C1207.96 40.208 1208.47 39.688 1208.84 39.016C1209.22 38.328 1209.41 37.536 1209.41 36.64C1209.41 35.728 1209.22 34.944 1208.84 34.288C1208.47 33.616 1207.96 33.096 1207.3 32.728C1206.66 32.36 1205.93 32.176 1205.12 32.176C1204.32 32.176 1203.59 32.36 1202.93 32.728C1202.29 33.096 1201.78 33.616 1201.4 34.288C1201.03 34.944 1200.85 35.728 1200.85 36.64C1200.85 37.536 1201.03 38.328 1201.4 39.016C1201.78 39.688 1202.29 40.208 1202.93 40.576C1203.59 40.944 1204.32 41.128 1205.12 41.128ZM1220.37 43.144C1219.09 43.144 1217.96 42.864 1216.97 42.304C1215.97 41.744 1215.19 40.976 1214.61 40C1214.04 39.008 1213.75 37.888 1213.75 36.64C1213.75 35.376 1214.04 34.256 1214.61 33.28C1215.19 32.304 1215.97 31.544 1216.97 31C1217.96 30.44 1219.09 30.16 1220.37 30.16C1221.64 30.16 1222.77 30.44 1223.76 31C1224.77 31.544 1225.55 32.304 1226.11 33.28C1226.69 34.24 1226.97 35.36 1226.97 36.64C1226.97 37.904 1226.69 39.024 1226.11 40C1225.55 40.976 1224.77 41.744 1223.76 42.304C1222.77 42.864 1221.64 43.144 1220.37 43.144ZM1220.37 41.128C1221.19 41.128 1221.92 40.944 1222.56 40.576C1223.21 40.208 1223.73 39.688 1224.09 39.016C1224.46 38.328 1224.65 37.536 1224.65 36.64C1224.65 35.728 1224.46 34.944 1224.09 34.288C1223.73 33.616 1223.21 33.096 1222.56 32.728C1221.92 32.36 1221.19 32.176 1220.37 32.176C1219.56 32.176 1218.83 32.36 1218.19 32.728C1217.55 33.096 1217.04 33.616 1216.65 34.288C1216.27 34.944 1216.08 35.728 1216.08 36.64C1216.08 37.536 1216.27 38.328 1216.65 39.016C1217.04 39.688 1217.55 40.208 1218.19 40.576C1218.83 40.944 1219.56 41.128 1220.37 41.128ZM1233.81 43.144C1232.75 43.144 1231.74 43 1230.78 42.712C1229.84 42.424 1229.1 42.072 1228.55 41.656L1229.51 39.832C1230.06 40.2 1230.73 40.512 1231.53 40.768C1232.33 41.024 1233.14 41.152 1233.98 41.152C1235.05 41.152 1235.82 41 1236.28 40.696C1236.76 40.392 1237 39.968 1237 39.424C1237 39.024 1236.86 38.712 1236.57 38.488C1236.28 38.264 1235.9 38.096 1235.42 37.984C1234.95 37.872 1234.43 37.776 1233.86 37.696C1233.28 37.6 1232.7 37.488 1232.13 37.36C1231.55 37.216 1231.02 37.024 1230.54 36.784C1230.06 36.528 1229.68 36.184 1229.39 35.752C1229.1 35.304 1228.96 34.712 1228.96 33.976C1228.96 33.208 1229.18 32.536 1229.61 31.96C1230.04 31.384 1230.65 30.944 1231.43 30.64C1232.23 30.32 1233.18 30.16 1234.26 30.16C1235.1 30.16 1235.94 30.264 1236.78 30.472C1237.65 30.664 1238.35 30.944 1238.9 31.312L1237.91 33.136C1237.34 32.752 1236.74 32.488 1236.11 32.344C1235.49 32.2 1234.86 32.128 1234.24 32.128C1233.23 32.128 1232.48 32.296 1231.98 32.632C1231.49 32.952 1231.24 33.368 1231.24 33.88C1231.24 34.312 1231.38 34.648 1231.67 34.888C1231.98 35.112 1232.36 35.288 1232.82 35.416C1233.3 35.544 1233.83 35.656 1234.41 35.752C1234.98 35.832 1235.56 35.944 1236.14 36.088C1236.71 36.216 1237.23 36.4 1237.7 36.64C1238.18 36.88 1238.56 37.216 1238.85 37.648C1239.15 38.08 1239.3 38.656 1239.3 39.376C1239.3 40.144 1239.08 40.808 1238.63 41.368C1238.18 41.928 1237.55 42.368 1236.74 42.688C1235.92 42.992 1234.94 43.144 1233.81 43.144Z" fill="black"/>
</svg>
